<svg width="29" height="44" viewBox="0 0 29 44" fill="none" xmlns="http://www.w3.org/2000/svg">
<g clip-path="url(#clip0)">
<path d="M7.37979 43.8624C11.3299 43.8624 14.5362 40.6095 14.5362 36.602V29.3452H7.37979C3.42971 29.3452 0.223389 32.5981 0.223389 36.6056C0.223389 40.6131 3.42971 43.8624 7.37979 43.8624Z" fill="#232528"/>
<path d="M0.223389 22.0883C0.223389 18.0808 3.42971 14.8279 7.37979 14.8279H14.5362V29.3451H7.37979C3.42971 29.3451 0.223389 26.0921 0.223389 22.0883Z" fill="#3F4144"/>
<path d="M0.221558 7.57143C0.221558 3.56395 3.42788 0.311035 7.37795 0.311035H14.5344V14.8282H7.37795C3.42788 14.8282 0.221558 11.5753 0.221558 7.57143Z" fill="#222323"/>
<path d="M14.5323 0.311035H21.6887C25.6388 0.311035 28.8451 3.56395 28.8451 7.57143C28.8451 11.5789 25.6388 14.8318 21.6887 14.8318H14.5323V0.311035Z" fill="#3F4144"/>
<path d="M28.8418 22.0883C28.8418 26.0958 25.6355 29.3487 21.6855 29.3487C17.7354 29.3487 14.5291 26.0958 14.5291 22.0883C14.5291 18.0808 17.7354 14.8279 21.6855 14.8279C25.6355 14.8279 28.8418 18.0808 28.8418 22.0883Z" fill="#55585F"/>
</g>
<defs>
<clipPath id="clip0">
<rect width="28.6185" height="43.5515" fill="white" transform="translate(0.222656 0.311035)"/>
</clipPath>
</defs>
</svg>
