<svg width="16" height="16" viewBox="0 0 16 16" fill="none" xmlns="http://www.w3.org/2000/svg">
<path d="M13.6557 2.34393C10.5301 -0.78171 5.47062 -0.782209 2.34455 2.34393C-0.781119 5.46956 -0.781587 10.529 2.34455 13.6551C5.47012 16.7807 10.5296 16.7812 13.6557 13.6551C16.7814 10.5295 16.7818 5.47003 13.6557 2.34393ZM13.3214 12.515C12.9477 12.1808 12.548 11.8851 12.1266 11.6302C12.4051 10.6682 12.5701 9.60962 12.6091 8.5092H14.9606C14.8543 9.99246 14.2844 11.3839 13.3214 12.515ZM1.03961 8.5092H3.3911C3.4301 9.60962 3.59509 10.6682 3.87358 11.6302C3.45224 11.8851 3.0525 12.1808 2.67881 12.515C1.71584 11.3839 1.14596 9.99246 1.03961 8.5092ZM2.67884 3.48406C3.05253 3.81822 3.45227 4.11395 3.87361 4.3688C3.59512 5.3308 3.43013 6.3894 3.39113 7.48982H1.03961C1.14596 6.00659 1.71584 4.6152 2.67884 3.48406ZM7.49044 4.47416C6.65918 4.4147 5.85768 4.20996 5.11463 3.87221C5.54678 2.7594 6.34344 1.42471 7.49044 1.09395V4.47416ZM7.49044 5.49545V7.48985H4.41092C4.44621 6.55898 4.5781 5.66512 4.79745 4.84726C5.64186 5.21639 6.54999 5.43684 7.49044 5.49545ZM7.49044 8.5092V10.5036C6.54999 10.5622 5.64186 10.7827 4.79745 11.1518C4.5781 10.3339 4.44621 9.44007 4.41092 8.5092H7.49044ZM7.49044 11.5249V14.9051C6.3435 14.5743 5.54684 13.2398 5.11463 12.1268C5.85768 11.7891 6.65918 11.5844 7.49044 11.5249ZM8.5098 11.5249C9.34105 11.5844 10.1426 11.7891 10.8856 12.1268C10.4534 13.2397 9.6568 14.5743 8.5098 14.9051V11.5249ZM8.5098 10.5036V8.5092H11.5893C11.554 9.44007 11.4221 10.3339 11.2028 11.1518C10.3584 10.7827 9.45025 10.5622 8.5098 10.5036ZM8.5098 7.48985V5.49545C9.45025 5.43684 10.3584 5.21639 11.2028 4.84726C11.4221 5.66512 11.554 6.55898 11.5893 7.48985H8.5098ZM8.5098 4.47416V1.09398C9.6568 1.42474 10.4535 2.75943 10.8856 3.87224C10.1426 4.20996 9.34105 4.4147 8.5098 4.47416ZM10.7992 1.60284C11.4516 1.88855 12.0603 2.27595 12.606 2.75662C12.3462 2.98562 12.0722 3.19326 11.786 3.37896C11.5319 2.74972 11.2072 2.13822 10.7992 1.60284ZM4.21421 3.37896C3.92804 3.19326 3.65401 2.98562 3.39425 2.75662C3.9399 2.27595 4.54859 1.88855 5.20103 1.60284C4.79299 2.13828 4.46835 2.74978 4.21421 3.37896ZM4.21424 12.6201C4.46835 13.2493 4.79305 13.8608 5.20106 14.3962C4.54862 14.1105 3.93993 13.7231 3.39428 13.2424C3.65401 13.0134 3.92807 12.8058 4.21424 12.6201ZM11.786 12.6201C12.0722 12.8058 12.3462 13.0134 12.606 13.2424C12.0603 13.7231 11.4516 14.1105 10.7992 14.3962C11.2072 13.8609 11.5319 13.2493 11.786 12.6201ZM12.6091 7.48985C12.5701 6.38944 12.4051 5.3308 12.1267 4.36884C12.548 4.11398 12.9477 3.81825 13.3214 3.48409C14.2844 4.6152 14.8543 6.00659 14.9606 7.48985H12.6091Z" fill="white"/>
</svg>
