<svg width="55" height="56" viewBox="0 0 55 56" fill="none" xmlns="http://www.w3.org/2000/svg">
<path d="M16.9271 11.0291H12.3771C11.9749 11.0291 11.5891 11.1888 11.3047 11.4733C11.0203 11.7577 10.8605 12.1435 10.8605 12.5457V42.879C10.8605 43.2813 11.0203 43.6671 11.3047 43.9515C11.5891 44.2359 11.9749 44.3957 12.3771 44.3957H16.9271V11.0291Z" fill="#004FAC"/>
<path d="M19.9605 44.3957H35.1272V11.0291H19.9605V44.3957ZM27.5438 38.3291C27.1416 38.3291 26.7558 38.1693 26.4714 37.8848C26.187 37.6004 26.0272 37.2146 26.0272 36.8124C26.0272 36.4101 26.187 36.0244 26.4714 35.7399C26.7558 35.4555 27.1416 35.2957 27.5438 35.2957C27.9461 35.2957 28.3319 35.4555 28.6163 35.7399C28.9007 36.0244 29.0605 36.4101 29.0605 36.8124C29.0605 37.2146 28.9007 37.6004 28.6163 37.8848C28.3319 38.1693 27.9461 38.3291 27.5438 38.3291ZM27.5438 17.0957C27.9461 17.0957 28.3319 17.2555 28.6163 17.5399C28.9007 17.8244 29.0605 18.2101 29.0605 18.6124C29.0605 19.0146 28.9007 19.4004 28.6163 19.6848C28.3319 19.9693 27.9461 20.1291 27.5438 20.1291C27.1416 20.1291 26.7558 19.9693 26.4714 19.6848C26.187 19.4004 26.0272 19.0146 26.0272 18.6124C26.0272 18.2101 26.187 17.8244 26.4714 17.5399C26.7558 17.2555 27.1416 17.0957 27.5438 17.0957ZM27.5438 26.1957C27.9461 26.1957 28.3319 26.3555 28.6163 26.6399C28.9007 26.9244 29.0605 27.3101 29.0605 27.7124C29.0605 28.1146 28.9007 28.5004 28.6163 28.7848C28.3319 29.0693 27.9461 29.2291 27.5438 29.2291C27.1416 29.2291 26.7558 29.0693 26.4714 28.7848C26.187 28.5004 26.0272 28.1146 26.0272 27.7124C26.0272 27.3101 26.187 26.9244 26.4714 26.6399C26.7558 26.3555 27.1416 26.1957 27.5438 26.1957Z" fill="#2476F2"/>
<path d="M42.7105 11.0291H38.1605V44.3957H42.7105C43.1127 44.3957 43.4985 44.2359 43.7829 43.9515C44.0673 43.6671 44.2271 43.2813 44.2271 42.879V12.5457C44.2271 12.1435 44.0673 11.7577 43.7829 11.4733C43.4985 11.1888 43.1127 11.0291 42.7105 11.0291Z" fill="#3C95FF"/>
</svg>
