<svg width="55" height="56" viewBox="0 0 55 56" fill="none" xmlns="http://www.w3.org/2000/svg">
<g clip-path="url(#clip0)">
<path d="M36.775 24.8919H45.875L41.325 18.8252L36.775 24.8919ZM36.775 30.9585H45.875L41.325 37.0252L36.775 30.9585Z" fill="#004FAC"/>
<path d="M10.9916 9.7251H20.0916V46.1251H10.9916C10.5894 46.1251 10.2036 45.9653 9.9192 45.6809C9.63477 45.3965 9.47498 45.0107 9.47498 44.6084V11.2418C9.47498 10.8395 9.63477 10.4537 9.9192 10.1693C10.2036 9.88489 10.5894 9.7251 10.9916 9.7251Z" fill="#2476F2"/>
<path d="M23.125 9.7251H32.225C32.6272 9.7251 33.013 9.88489 33.2974 10.1693C33.5819 10.4537 33.7417 10.8395 33.7417 11.2418V44.6084C33.7417 45.0107 33.5819 45.3965 33.2974 45.6809C33.013 45.9653 32.6272 46.1251 32.225 46.1251H23.125V9.7251Z" fill="#3C95FF"/>
</g>
<defs>
<clipPath id="clip0">
<rect width="36.4" height="36.4" fill="white" transform="translate(9.47498 9.7251)"/>
</clipPath>
</defs>
</svg>
