<svg width="56" height="56" viewBox="0 0 56 56" fill="none" xmlns="http://www.w3.org/2000/svg">
<path d="M23.1812 24.6791H12.5646C12.1623 24.6791 11.7766 24.5193 11.4921 24.2348C11.2077 23.9504 11.0479 23.5646 11.0479 23.1624V12.5457C11.0479 12.1435 11.2077 11.7577 11.4921 11.4733C11.7766 11.1888 12.1623 11.0291 12.5646 11.0291H23.1812C23.5835 11.0291 23.9693 11.1888 24.2537 11.4733C24.5381 11.7577 24.6979 12.1435 24.6979 12.5457V23.1624C24.6979 23.5646 24.5381 23.9504 24.2537 24.2348C23.9693 24.5193 23.5835 24.6791 23.1812 24.6791Z" fill="#2476F2"/>
<path d="M23.1812 44.3956H12.5646C12.1623 44.3956 11.7766 44.2358 11.4921 43.9514C11.2077 43.667 11.0479 43.2812 11.0479 42.8789V32.2623C11.0479 31.86 11.2077 31.4743 11.4921 31.1898C11.7766 30.9054 12.1623 30.7456 12.5646 30.7456H23.1812C23.5835 30.7456 23.9693 30.9054 24.2537 31.1898C24.5381 31.4743 24.6979 31.86 24.6979 32.2623V42.8789C24.6979 43.2812 24.5381 43.667 24.2537 43.9514C23.9693 44.2358 23.5835 44.3956 23.1812 44.3956Z" fill="#2476F2"/>
<path d="M29.2479 12.5457H44.4145V15.579H29.2479V12.5457Z" fill="#3C95FF"/>
<path d="M44.4145 32.2625H29.2479V35.2958H44.4145V32.2625Z" fill="#3C95FF"/>
<path d="M44.4145 39.8457H29.2479V42.879H44.4145V39.8457Z" fill="#004FAC"/>
<path d="M44.4145 20.1289H29.2479V23.1622H44.4145V20.1289Z" fill="#004FAC"/>
</svg>
