<svg width="55" height="56" viewBox="0 0 55 56" fill="none" xmlns="http://www.w3.org/2000/svg">
<g clip-path="url(#clip0)">
<path d="M41.25 46.125H27.6C27.1978 46.125 26.812 45.9652 26.5276 45.6808C26.2432 45.3964 26.0834 45.0106 26.0834 44.6084V41.575C26.0834 41.1728 26.2432 40.787 26.5276 40.5026C26.812 40.2181 27.1978 40.0583 27.6 40.0583H41.25C41.6523 40.0583 42.0381 40.2181 42.3225 40.5026C42.6069 40.787 42.7667 41.1728 42.7667 41.575V44.6084C42.7667 45.0106 42.6069 45.3964 42.3225 45.6808C42.0381 45.9652 41.6523 46.125 41.25 46.125Z" fill="#004FAC"/>
<path d="M41.25 9.7251H13.95C13.5478 9.7251 13.162 9.88489 12.8776 10.1693C12.5931 10.4537 12.4333 10.8395 12.4333 11.2418V14.2751C12.4333 14.6773 12.5931 15.0631 12.8776 15.3475C13.162 15.632 13.5478 15.7918 13.95 15.7918H41.25C41.6523 15.7918 42.038 15.632 42.3225 15.3475C42.6069 15.0631 42.7667 14.6773 42.7667 14.2751V11.2418C42.7667 10.8395 42.6069 10.4537 42.3225 10.1693C42.038 9.88489 41.6523 9.7251 41.25 9.7251Z" fill="#3C95FF"/>
<path d="M41.25 18.8252H13.95C13.5478 18.8252 13.162 18.985 12.8776 19.2694C12.5931 19.5538 12.4333 19.9396 12.4333 20.3419V35.5085C12.4333 35.9108 12.5931 36.2965 12.8776 36.581C13.162 36.8654 13.5478 37.0252 13.95 37.0252H41.25C41.6523 37.0252 42.038 36.8654 42.3225 36.581C42.6069 36.2965 42.7667 35.9108 42.7667 35.5085V20.3419C42.7667 19.9396 42.6069 19.5538 42.3225 19.2694C42.038 18.985 41.6523 18.8252 41.25 18.8252Z" fill="#2476F2"/>
</g>
<defs>
<clipPath id="clip0">
<rect width="36.4" height="36.4" fill="white" transform="translate(9.40002 9.7251)"/>
</clipPath>
</defs>
</svg>
