<svg width="40" height="44" viewBox="0 0 40 44" fill="none" xmlns="http://www.w3.org/2000/svg">
<g clip-path="url(#clip0)">
<path d="M4.29633 39.5096L0.786255 0.311035H39.359L35.8489 39.497L20.0424 43.8626L4.29633 39.5096Z" fill="#55585F"/>
<path d="M20.0774 40.5337L32.8439 37.0122L35.8521 3.51636H20.0774V40.5337Z" fill="#3F4144"/>
<path d="M20.0755 18.0583H13.6748L13.2364 13.1363H20.0755V8.33447H20.0597H7.95703L8.07774 9.61475L9.25941 22.8632H20.0755V18.0583Z" fill="#EBEBEB"/>
<path d="M20.0764 30.5385L20.0605 30.5543L14.6763 29.0938L14.3269 25.2688H11.7094H9.48584L10.1529 32.8114L20.0605 35.5521L20.0764 35.5363V30.5385Z" fill="#EBEBEB"/>
<path d="M20.0596 18.0576V22.8626H26.0029L25.4438 29.0933L20.0596 30.5379V35.5516L29.9513 32.8108L30.0276 31.9984L31.1616 19.3537L31.2823 18.0576H29.9831H20.0596Z" fill="white"/>
<path d="M20.0596 8.33447V11.3155V13.1237V13.1363H31.7079H31.7207L31.8287 12.052L32.0383 9.61475L32.1622 8.33447H20.0596Z" fill="white"/>
</g>
<defs>
<clipPath id="clip0">
<rect width="38.5727" height="43.5515" fill="white" transform="translate(0.786499 0.311035)"/>
</clipPath>
</defs>
</svg>
