<svg width="55" height="43" viewBox="0 0 55 43" fill="none" xmlns="http://www.w3.org/2000/svg">
<path d="M27.0151 0H0.88501V7.90941H27.0151V0Z" fill="white"/>
<path d="M0.88501 15.2861V35.7279H8.88479V21.9934H31.814V15.2861H0.88501Z" fill="white"/>
<path d="M31.7118 22.0421C32.7974 17.651 36.7604 14.3978 41.4856 14.3978C44.4879 14.3978 47.1822 15.7093 49.0264 17.7937L55.0001 11.4919C51.5828 7.66675 46.6127 5.25659 41.0789 5.25659C31.4062 5.25659 23.4528 12.6155 22.5099 22.0409H31.7118V22.0421Z" fill="white"/>
<path d="M49.0846 31.08C47.2369 33.2013 44.5199 34.5413 41.4867 34.5413C37.4238 34.5413 33.9233 32.1347 32.3312 28.6687H23.0259C25.1257 36.6768 32.4121 42.5863 41.0789 42.5863C46.4616 42.5863 51.3117 40.3069 54.7182 36.6602L49.0846 31.08Z" fill="white"/>
</svg>
