<svg width="28" height="28" viewBox="0 0 28 28" fill="none" xmlns="http://www.w3.org/2000/svg">
<g clip-path="url(#clip0)">
<path d="M18.5605 14.1436L28 20.1111V7.92407L18.5605 14.1436Z" fill="white" fill-opacity="0.75"/>
<path d="M0 7.92407V20.1111L9.4395 14.1436L0 7.92407Z" fill="white" fill-opacity="0.75"/>
<path d="M26.25 4.375H1.74999C0.87674 4.375 0.18374 5.026 0.0524902 5.86425L14 15.0535L27.9475 5.86425C27.8162 5.026 27.1232 4.375 26.25 4.375Z" fill="white" fill-opacity="0.75"/>
<path d="M16.9575 15.2005L14.4813 16.8315C14.3343 16.9277 14.168 16.975 14 16.975C13.832 16.975 13.6658 16.9277 13.5188 16.8315L11.0425 15.1987L0.0559998 22.148C0.19075 22.9792 0.88025 23.625 1.75 23.625H26.25C27.1198 23.625 27.8093 22.9792 27.944 22.148L16.9575 15.2005Z" fill="white" fill-opacity="0.75"/>
</g>
<defs>
<clipPath id="clip0">
<rect width="28" height="28" fill="white"/>
</clipPath>
</defs>
</svg>
