<svg width="40" height="42" viewBox="0 0 40 42" fill="none" xmlns="http://www.w3.org/2000/svg">
<g clip-path="url(#clip0)">
<path d="M19.8003 0.807991C18.1438 0.807991 16.5766 0.948688 15.1962 1.23008C11.1443 1.98323 10.4053 3.48538 10.4053 6.34484V10.0981H20.0277V11.3644H10.4053H6.81217C4.0026 11.3644 1.56251 13.0528 0.778914 16.3385C-0.0939992 20.0918 -0.14272 22.3926 0.778914 26.2866C1.46912 29.1957 3.08097 31.2607 5.89053 31.2607H9.2076V26.7087C9.2076 23.4685 11.9684 20.6091 15.2409 20.6091H24.8632C27.5347 20.6091 29.65 18.3579 29.65 15.635V6.29932C29.65 3.62607 27.4413 1.65217 24.8632 1.18456C23.162 0.903168 21.4568 0.762471 19.8003 0.807991ZM14.5953 3.81229C15.6103 3.81229 16.3899 4.65647 16.3899 5.69101C16.3899 6.72555 15.5616 7.56973 14.5953 7.56973C13.5803 7.56973 12.8008 6.72555 12.8008 5.69101C12.8008 4.61095 13.5843 3.81229 14.5953 3.81229Z" fill="white"/>
<path d="M30.801 11.2736V15.6393C30.801 19.0202 27.9915 21.8341 24.7678 21.8341H15.1942C12.5714 21.8341 10.4073 24.1349 10.4073 26.8082V36.148C10.4073 38.8212 12.6647 40.3731 15.1942 41.1221C18.2351 42.0118 21.1787 42.2021 24.8165 41.1221C27.2566 40.4186 29.6033 38.9619 29.6033 36.148V32.3947H19.981V31.1284H29.6033H34.3901C37.1997 31.1284 38.2107 29.1587 39.1769 26.1544C40.192 23.1045 40.1432 20.1458 39.1769 16.2062C38.4867 13.3923 37.151 11.2322 34.3901 11.2322H30.801V11.2736ZM25.4133 34.9272C26.4284 34.9272 27.2079 35.7714 27.2079 36.806C27.2079 37.8405 26.3796 38.6847 25.4133 38.6847C24.3983 38.6847 23.6188 37.8405 23.6188 36.806C23.6188 35.7259 24.4024 34.9272 25.4133 34.9272Z" fill="#55585F"/>
</g>
<defs>
<clipPath id="clip0">
<rect width="39.817" height="41.0629" fill="white" transform="translate(0.108643 0.799805)"/>
</clipPath>
</defs>
</svg>
