<svg width="50" height="43" viewBox="0 0 50 43" fill="none" xmlns="http://www.w3.org/2000/svg">
<g clip-path="url(#clip0)">
<path d="M40.6034 14.0248C40.0854 13.8497 39.5673 13.6888 39.0419 13.5422C39.1295 13.1954 39.2098 12.8486 39.2827 12.4983C40.4648 6.87471 39.6913 2.34154 37.0536 0.850743C34.5216 -0.57928 30.3807 0.911519 26.1997 4.47585C25.7874 4.82621 25.3861 5.19086 24.9921 5.56267C24.7294 5.31599 24.4594 5.07289 24.1894 4.83336C19.8041 1.02235 15.4114 -0.582855 12.7737 0.911519C10.2453 2.34512 9.49741 6.60659 10.5591 11.937C10.6649 12.4661 10.7853 12.9916 10.9166 13.5136C10.2964 13.6852 9.69442 13.8711 9.12163 14.0677C3.98472 15.8195 0.704834 18.5723 0.704834 21.4252C0.704834 24.371 4.22551 27.3276 9.57768 29.1187C10.0118 29.2617 10.4496 29.3976 10.8911 29.5191C10.7488 30.0804 10.6211 30.6488 10.5117 31.2173C9.49741 36.4547 10.2891 40.6125 12.8101 42.039C15.4151 43.5119 19.7895 41.9997 24.0471 38.3495C24.3828 38.0599 24.7221 37.7561 25.0614 37.4343C25.4882 37.8383 25.926 38.228 26.3748 38.6069C30.4974 42.0855 34.5727 43.4904 37.0937 42.0604C39.695 40.5839 40.5414 36.1151 39.4433 30.681C39.3593 30.2663 39.2608 29.8409 39.1514 29.4083C39.4578 29.3189 39.7607 29.226 40.0525 29.133C45.6163 27.3276 49.2355 24.4068 49.2355 21.4216C49.2318 18.5616 45.8425 15.7909 40.6034 14.0248ZM27.5605 6.00955C31.1432 2.95288 34.4924 1.74808 36.0174 2.60967C37.641 3.52846 38.2758 7.23222 37.2542 12.0871C37.1886 12.4018 37.1156 12.7199 37.0353 13.031C35.0214 12.5769 32.8361 12.2373 30.5485 12.0264C29.2169 10.1673 27.8341 8.47276 26.4478 7.01057C26.8053 6.66736 27.1774 6.33488 27.5605 6.00955ZM15.032 23.8598C15.4698 24.6892 15.9295 25.5115 16.4074 26.3195C16.8963 27.1453 17.4034 27.9604 17.9324 28.7612C16.3418 28.586 14.8459 28.3537 13.4595 28.0569C13.8901 26.702 14.4154 25.2934 15.032 23.8598ZM15.032 19.0835C14.43 17.6821 13.9119 16.3021 13.4887 14.9686C14.8715 14.6648 16.3491 14.4181 17.8887 14.2286C17.3742 15.0151 16.8781 15.8159 16.4001 16.6239C15.9258 17.4354 15.4661 18.2541 15.032 19.0835ZM16.1338 21.4717C16.7723 20.1704 17.4618 18.8905 18.1988 17.6392C18.9358 16.3879 19.7202 15.1617 20.552 13.9676C21.9967 13.8604 23.4743 13.8032 24.9702 13.8032C26.4733 13.8032 27.9545 13.8604 29.3956 13.9676C30.2202 15.1581 30.9973 16.3808 31.7342 17.6249C32.4749 18.8726 33.1717 20.1453 33.8248 21.4395C33.1754 22.748 32.4822 24.0314 31.7379 25.2898C31.0046 26.5411 30.2275 27.7673 29.4102 28.9721C27.9691 29.0722 26.4842 29.1259 24.9665 29.1259C23.4561 29.1259 21.9894 29.0794 20.5739 28.99C19.7347 27.7924 18.9467 26.5626 18.2024 25.3041C17.4618 24.0529 16.7723 22.7766 16.1338 21.4717ZM33.5365 26.3087C34.0254 25.4793 34.4924 24.6392 34.9448 23.7883C35.5942 25.2362 36.1415 26.6376 36.5756 27.9711C35.1674 28.2857 33.6496 28.5396 32.048 28.7255C32.5588 27.9318 33.055 27.1238 33.5365 26.3087ZM34.9229 19.0835C34.4742 18.2505 34.0108 17.4247 33.5256 16.6096C33.0513 15.8052 32.5588 15.0151 32.0517 14.2322C33.5986 14.4252 35.0835 14.6791 36.4771 14.9901C36.0576 16.3057 35.5358 17.6785 34.9229 19.0835ZM24.9921 8.46561C25.9479 9.48093 26.9074 10.6142 27.8487 11.844C25.937 11.7547 24.0252 11.7547 22.1135 11.844C23.0548 10.6214 24.0179 9.49166 24.9921 8.46561ZM13.8134 2.67045C15.437 1.74808 19.027 3.0637 22.8103 6.35633C23.0511 6.56726 23.2956 6.78534 23.54 7.01414C22.1317 8.49779 20.738 10.1852 19.4064 12.0264C17.1225 12.2337 14.9371 12.5662 12.9269 13.0095C12.8028 12.5233 12.6934 12.0371 12.5949 11.5437C11.6828 6.97839 12.2884 3.53561 13.8134 2.67045ZM11.4456 27.5636C11.0443 27.4492 10.643 27.3276 10.249 27.1953C7.88118 26.4017 5.9293 25.3721 4.59035 24.2495C3.38639 23.2378 2.78076 22.2367 2.78076 21.4216C2.78076 19.6913 5.41488 17.4819 9.80752 15.9804C10.3584 15.7945 10.9166 15.6229 11.4785 15.4656C12.0841 17.3997 12.8831 19.4232 13.8426 21.4717C12.8685 23.5488 12.0586 25.6044 11.4456 27.5636ZM22.679 36.823C20.7964 38.4353 18.9102 39.5793 17.2466 40.1549C15.7507 40.6733 14.5614 40.6876 13.8426 40.28C12.3103 39.4149 11.6755 36.0758 12.5438 31.5962C12.646 31.0671 12.7664 30.5416 12.8977 30.0161C14.8861 30.4451 17.086 30.7561 19.4356 30.942C20.7782 32.7939 22.1828 34.4956 23.602 35.9864C23.3029 36.276 22.9964 36.5513 22.679 36.823ZM25.0468 34.5278C24.0654 33.4874 23.084 32.3398 22.1281 31.1029C23.0584 31.1386 24.0033 31.1565 24.9665 31.1565C25.9552 31.1565 26.933 31.1351 27.8962 31.0922C26.9512 32.3506 25.999 33.5017 25.0468 34.5278ZM37.6373 37.3521C37.3491 38.8786 36.7653 39.8975 36.0503 40.3051C34.5216 41.1738 31.249 40.0441 27.7247 37.0696C27.3197 36.73 26.9111 36.3654 26.5061 35.9793C27.8743 34.5135 29.2388 32.8118 30.5741 30.917C32.92 30.7132 35.1345 30.3807 37.1448 29.9231C37.2433 30.3128 37.3308 30.6989 37.4075 31.0743C37.889 33.4803 37.9584 35.6539 37.6373 37.3521ZM39.3958 27.2096C39.1295 27.2954 38.8595 27.3777 38.5822 27.4599C37.9693 25.5544 37.1375 23.5273 36.1232 21.4359C37.0901 19.391 37.889 17.3925 38.4837 15.5013C38.9799 15.6408 39.4615 15.7909 39.9248 15.9482C44.416 17.464 47.1559 19.702 47.1559 21.4288C47.1559 23.2628 44.2007 25.6473 39.3958 27.2096Z" fill="#55585F"/>
<path d="M24.967 17.178C27.3603 17.178 29.3012 19.0799 29.3012 21.4251C29.3012 23.7704 27.3603 25.6723 24.967 25.6723C22.5736 25.6723 20.6327 23.7704 20.6327 21.4251C20.6363 19.0799 22.5736 17.178 24.967 17.178Z" fill="white"/>
</g>
<defs>
<clipPath id="clip0">
<rect width="48.527" height="42.3072" fill="white" transform="translate(0.705811 0.311035)"/>
</clipPath>
</defs>
</svg>
