<svg width="74" height="74" viewBox="0 0 74 74" fill="none" xmlns="http://www.w3.org/2000/svg">
<path d="M67.8734 17.74L72.7268 12.8867C73.3335 12.28 73.5068 11.3267 73.1601 10.5467C72.8135 9.76668 72.0334 9.24668 71.1668 9.24668H64.8401V2.92002C64.8401 2.05335 64.3201 1.27335 63.5401 0.926685C62.7601 0.580018 61.8068 0.753352 61.2001 1.36002L56.3468 6.21334C50.6268 2.66001 43.8667 0.753354 37.1067 0.753354C17.1734 0.753354 0.880127 17.0467 0.880127 36.98C0.880127 56.9133 17.1734 73.2067 37.1067 73.2067C57.0401 73.2067 73.3334 56.9133 73.3334 36.98C73.3334 30.1333 71.4267 23.3733 67.8734 17.74ZM56.3468 12.28L60.5935 8.03335V11.4133C60.5935 12.6267 61.5467 13.4934 62.6734 13.4934H66.0534L61.8067 17.74H56.3468V12.28ZM55.2201 21.9867C58.6868 26.1467 60.5935 31.4333 60.5935 36.98C60.5935 49.8067 50.0201 60.2933 37.1067 60.2933C24.1934 60.2933 13.6201 49.8067 13.6201 36.98C13.6201 24.0667 24.1934 13.4934 37.1067 13.4934C42.6534 13.4934 47.9401 15.4 52.1001 18.8667V19.04L49.0668 22.0733C45.6868 19.3 41.4401 17.8267 37.1067 17.8267C26.6201 17.8267 17.8668 26.4934 17.8668 37.0667C17.8668 47.5534 26.5334 56.1334 37.1067 56.1334C47.6801 56.1334 56.3468 47.5534 56.3468 37.0667C56.3468 32.6467 54.8734 28.4867 52.1001 25.1067L55.1334 22.0733L55.2201 21.9867ZM35.6334 38.4534C36.5001 39.32 37.8001 39.32 38.6668 38.4534L43.0001 34.12C43.4334 34.9867 43.6935 35.94 43.6935 36.98C43.6935 40.4467 40.7468 43.3067 37.1935 43.3067C33.6401 43.3067 30.6935 40.36 30.6935 36.98C30.6935 33.4267 33.6401 30.48 37.1935 30.48C38.2335 30.48 39.1868 30.74 40.0534 31.1733L35.7201 35.5067C34.7668 36.2867 34.7668 37.6734 35.6334 38.4534ZM43.0868 28.0534C41.3534 26.9267 39.3601 26.2334 37.1935 26.2334C31.3868 26.2334 26.4468 31.1733 26.4468 36.98C26.4468 42.8733 31.3001 47.5534 37.1935 47.5534C43.0868 47.5534 47.9401 42.7867 47.9401 36.98C47.9401 34.8133 47.2467 32.7334 46.1201 31.0867L49.1534 28.0534C51.0601 30.5667 52.1868 33.6867 52.1868 36.98C52.1868 45.1267 45.4268 51.8 37.1935 51.8C28.9601 51.8 22.2001 45.1267 22.2001 36.98C22.2001 28.8333 29.0468 21.9867 37.1935 21.9867C40.4868 21.9867 43.6068 23.1134 46.1201 25.02L43.0868 28.0534ZM37.1067 68.96C19.5134 68.96 5.12681 54.66 5.12681 36.98C5.12681 19.3 19.4267 5.00002 37.1067 5.00002C42.7401 5.00002 48.4601 6.56002 53.2268 9.33335L52.7067 9.85335C52.2734 10.2867 52.1001 10.8067 52.1001 11.3267V13.58C47.6801 10.72 42.4801 9.24668 37.1067 9.24668C21.8534 9.24668 9.3734 21.7267 9.3734 36.98C9.3734 52.2333 21.8534 64.54 37.1067 64.54C52.3601 64.54 64.8401 52.2333 64.8401 36.98C64.8401 31.6067 63.2801 26.4067 60.5067 21.9867H62.7601C63.3668 21.9867 63.8868 21.7267 64.2334 21.38L64.7534 20.86C67.5267 25.7134 69.0868 31.3467 69.0868 36.98C69.0868 54.5733 54.7867 68.96 37.1067 68.96Z" fill="#373737"/>
</svg>
