<svg width="45" height="38" viewBox="0 0 45 38" fill="none" xmlns="http://www.w3.org/2000/svg">
<g clip-path="url(#clip0)">
<path d="M2.13928 2.70972H42.3445V40.5254H2.13928V2.70972Z" fill="#55585F"/>
<path d="M0.309937 0.942139V42.294H44.1679V0.942139H0.309937ZM2.13836 2.71021H42.3435V40.5259H2.13836V2.71021Z" fill="white"/>
<path d="M32.1635 18.3128C31.8908 18.1887 31.542 18.1344 31.1049 18.1344C28.8034 18.1344 27.2677 19.8482 27.2677 22.6942C27.2677 25.9472 28.8395 27.2539 30.8844 27.2539C31.3215 27.2539 31.7986 27.1996 32.1434 27.06V18.3128H32.1635ZM23.9757 22.8376C23.9757 18.7199 26.7183 15.5056 31.2132 15.5056C31.5981 15.5056 31.7986 15.5056 32.1635 15.5405V10.9458C32.1635 10.8411 32.2557 10.7675 32.3479 10.7675H35.291C35.4354 10.7675 35.4755 10.8217 35.4755 10.907V27.06C35.4755 27.537 35.4755 28.1379 35.5677 28.7932C35.5677 28.9173 35.5677 28.9328 35.4595 28.9871C33.9237 29.6928 32.3159 30.0107 30.7801 30.0107C26.8065 30.0107 23.9757 27.6416 23.9757 22.8376ZM17.7446 19.9723L22.861 29.5687C22.9532 29.7083 22.8971 29.8517 22.7527 29.8517H19.5731C19.3726 29.8517 19.2804 29.7974 19.1881 29.623C18.0173 27.2888 16.8304 24.8693 15.6075 22.3607H15.5714C14.4727 24.7259 13.2658 27.3082 12.099 29.6385C12.0068 29.7781 11.9145 29.8323 11.7702 29.8323H8.73486C8.55042 29.8323 8.53438 29.6928 8.6266 29.5842L13.6347 20.2708L8.791 11.0156C8.68273 10.876 8.791 10.752 8.91931 10.752H12.0629C12.2474 10.752 12.3356 10.7868 12.3917 10.9458C13.5425 13.2955 14.7133 15.6103 15.808 17.9793H15.844C16.9026 15.6452 18.0734 13.2955 19.1881 10.9807C19.2804 10.8411 19.3325 10.752 19.5169 10.752H22.46C22.6044 10.752 22.6605 10.8566 22.5683 11.0156L17.7446 19.9723Z" fill="white"/>
</g>
<defs>
<clipPath id="clip0">
<rect width="43.858" height="41.3518" fill="white" transform="translate(0.309937 0.942139)"/>
</clipPath>
</defs>
</svg>
